<?xml version="1.0" encoding="utf-8"?>
<!-- Generator: Adobe Illustrator 27.0.1, SVG Export Plug-In . SVG Version: 6.00 Build 0)  -->
<svg version="1.1" id="sprite_background" xmlns="http://www.w3.org/2000/svg" xmlns:xlink="http://www.w3.org/1999/xlink" x="0px"
	 y="0px" viewBox="0 0 1200 1200" style="enable-background:new 0 0 1200 1200;" xml:space="preserve">
<style type="text/css">
	.st0{fill:none;stroke:#000000;stroke-width:3;stroke-miterlimit:10;}
	.st1{fill:none;stroke:#000000;stroke-width:3;stroke-miterlimit:10.0001;}
	.st2{fill:none;stroke:#000000;stroke-width:3.0001;stroke-miterlimit:10.0003;}
	.st3{fill:none;stroke:#000000;stroke-width:2.9999;stroke-miterlimit:9.9996;}
	.st4{fill:none;stroke:#000000;stroke-width:3.0001;stroke-miterlimit:10.0004;}
	.st5{fill:none;stroke:#000000;stroke-width:2.9998;stroke-miterlimit:9.9995;}
	.st6{fill:none;stroke:#000000;stroke-width:3.0002;stroke-miterlimit:10.0005;}
	.st7{fill:none;stroke:#000000;stroke-width:3.0002;stroke-miterlimit:10.0006;}
	.st8{fill:none;stroke:#000000;stroke-width:3;stroke-miterlimit:10.0002;}
	.st9{fill:none;stroke:#1D1D1B;stroke-width:3;stroke-linecap:round;stroke-miterlimit:10;}
	.st10{display:none;}
	.st11{display:inline;fill:none;stroke:#1D1D1B;stroke-width:3;stroke-linecap:round;stroke-miterlimit:10;}
</style>
<g>
	<path class="st0" d="M818.6,515.7c-0.8-0.5-4.8-3.2-9.9-2.1c-4.4,0.9-6.8,3.9-7.7,5.2c-3.3,4.3-5.9,12.6-1.3,18.1
		c4.4,5.2,13.6,6.1,20.2,0.4"/>
	<path class="st0" d="M825.6,549c-12.8,10.3-29.5,7.7-38-2.5c-9.2-11-3.9-27.2,2.5-35.5c1.8-2.4,6.7-8.1,15.2-10.1
		c9.1-2.1,18.4,3,20.5,5.1"/>
	<path class="st0" d="M830.6,515.1c-0.1,8-0.1,16-0.1,24c0,0.4,0.3,0.8,0.7,1c2.2,0.8,10,0.4,11.8-0.5c1.2-0.6,3.2-1.8,3.9-4.2
		c0.6-1.9,0-4.1-0.8-5.8c-2.4-4.8-12.1-3.1-12.1-3.4c0-0.2,5,0.7,7.3-1.8c1-1.1,1.2-2.6,1.3-2.9c0-0.1,0.3-2-0.4-3.7
		c-1.8-4-7.9-4.2-10.9-3.5C830.8,514.3,830.6,514.7,830.6,515.1z"/>
</g>
<g>
	<g id="lines">
		<line class="st0" x1="371.4" y1="791" x2="409.5" y2="777.3"/>
		<line class="st0" x1="353.3" y1="737.2" x2="391.1" y2="723.6"/>
	</g>
	<g id="dash">
		<g>
			<g>
				<path class="st0" d="M388.4,880.4c-0.6,0.3-1.1,0.6-1.7,0.9"/>
				<path class="st0" d="M383,883c-33.7,14-70.7-11.9-76.6-47.3"/>
				<path class="st0" d="M306.1,833.7c-0.1-0.6-0.2-1.3-0.2-1.9"/>
			</g>
		</g>
		<g>
			<g>
				<path class="st0" d="M278.9,743.3c-0.4-0.5-0.7-1.1-1.1-1.6"/>
				<path class="st0" d="M275.9,738.3c-17-32.3,5.3-72.9,39.7-83"/>
				<path class="st0" d="M317.4,654.8c0.6-0.2,1.3-0.3,1.9-0.5"/>
			</g>
		</g>
	</g>
	<g id="circle">
		
			<ellipse transform="matrix(0.433 -0.9014 0.9014 0.433 -552.0049 825.1165)" class="st1" cx="379.9" cy="851.3" rx="18.9" ry="18.6"/>
		
			<ellipse transform="matrix(0.433 -0.9014 0.9014 0.433 -512.0065 820.662)" class="st1" cx="396.3" cy="817.3" rx="18.9" ry="18.6"/>
		<ellipse transform="matrix(0.433 -0.9014 0.9014 0.433 -451.969 821.4392)" class="st1" cx="427" cy="770" rx="18.9" ry="18.6"/>
		
			<ellipse transform="matrix(0.433 -0.9014 0.9014 0.433 -420.585 846.0159)" class="st1" cx="462.2" cy="757.3" rx="18.9" ry="18.6"/>
		
			<ellipse transform="matrix(0.433 -0.9014 0.9014 0.433 -557.636 774.4609)" class="st1" cx="336.8" cy="830.5" rx="18.9" ry="18.6"/>
		
			<ellipse transform="matrix(0.433 -0.9014 0.9014 0.433 -517.6162 770.0026)" class="st1" cx="353.2" cy="796.4" rx="18.9" ry="18.6"/>
		
			<ellipse transform="matrix(0.433 -0.9014 0.9014 0.433 -432.4306 678.6573)" class="st1" cx="323.2" cy="683.1" rx="18.9" ry="18.6"/>
		
			<ellipse transform="matrix(0.433 -0.9014 0.9014 0.433 -428.0813 717.8594)" class="st1" cx="356.6" cy="699.2" rx="18.9" ry="18.6"/>
		
			<ellipse transform="matrix(0.433 -0.9014 0.9014 0.433 -414.1028 775.0558)" class="st1" cx="409" cy="716.7" rx="18.9" ry="18.6"/>
		
			<ellipse transform="matrix(0.433 -0.9014 0.9014 0.433 -382.7221 799.6229)" class="st1" cx="444.2" cy="704" rx="18.9" ry="18.6"/>
		<ellipse transform="matrix(0.433 -0.9014 0.9014 0.433 -484.1029 684.3959)" class="st1" cx="302" cy="727" rx="18.9" ry="18.6"/>
		
			<ellipse transform="matrix(0.433 -0.9014 0.9014 0.433 -479.7499 723.6193)" class="st1" cx="335.3" cy="743.2" rx="18.9" ry="18.6"/>
	</g>
	
		<ellipse transform="matrix(0.433 -0.9014 0.9014 0.433 -415.4651 812.9044)" class="st1" cx="438.4" cy="736.7" rx="62.7" ry="61.5"/>
</g>
<g>
	<g>
		<g>
			<path class="st0" d="M823.4,247c-3,9.3-7.7,18.8-15.9,24.5c-2.3,1.6-4.7,2.9-7.3,3.9"/>
			<path class="st0" d="M818.4,199.2c5.9,9.6,8.5,20.9,8,32.4"/>
			<path class="st0" d="M778.3,170.8c12.1,2.2,23.4,8.4,31.8,17.6"/>
			<path class="st0" d="M735.9,182.9c6.4-6.1,14.4-10.1,23.1-11.9c2-0.4,4.1-0.7,6.2-0.9"/>
			<path class="st0" d="M723,219.4c0-5.9,0.7-11.8,2.3-17.5c0.5-1.6,1-3.2,1.6-4.8"/>
			<path class="st0" d="M742.3,265.4c-10.8-9-16.9-22.5-18.6-36.2"/>
			<path class="st0" d="M786.2,278.5c-9.3,0.8-18.6-1.1-27.2-4"/>
		</g>
		<path class="st0" d="M818.3,199.1"/>
	</g>
	<path class="st0" d="M780.2,273.8c1.6,0.7,6.4,3,9.6,8.4c2.9,5,2.8,9.9,2.7,11.7"/>
	<path class="st0" d="M805.9,289c-1.4-1.3-4.9-4.8-6.5-10.5c-1.6-5.9-0.3-10.7,0.3-12.5"/>
	<path class="st0" d="M842.7,230.7c-1.3,0.8-6.6,4-13.8,2.9c-7.1-1.1-11.1-5.7-12.1-6.9"/>
	<path class="st0" d="M840.5,250.9c-2.4-1.5-7.4-4.3-14.4-4.8c-6-0.5-10.8,0.9-13.4,1.9"/>
	<path class="st0" d="M827.9,188.8c-2.4,1.4-6.6,4.4-10,9.5c-2.8,4.2-4,8.2-4.5,10.8"/>
	<path class="st0" d="M820.7,178.7c-0.9,2-3.1,6.3-7.9,9.7c-5.3,3.9-10.7,4.5-12.9,4.6"/>
	<path class="st0" d="M780.2,180.9c-0.9-1.5-2.8-5-2.8-9.8c0-5.8,2.6-9.8,3.5-11.2"/>
	<path class="st0" d="M761.1,181.5c1.5-1.8,3.7-4.8,5-9c2.1-6.4,1.2-11.9,0.7-14.5"/>
	<path class="st0" d="M744.5,183.7c-2,0.5-6.3,1.2-11.5-0.4c-6.6-2.1-10.1-6.9-11.2-8.4"/>
	<path class="st0" d="M736.5,200.9c-1.7-1.4-4.4-3.3-8.1-4.6c-7.1-2.4-13.3-0.8-15.7,0"/>
	<path class="st0" d="M732.6,227.5c-2.3-0.1-6.7-0.1-11.5,2.1c-3.8,1.7-6.3,4-7.8,5.5"/>
	<path class="st0" d="M729.9,215.5c-1.1,1.2-4.2,4.2-9.2,5.3c-5.2,1.2-9.3-0.3-10.8-0.9"/>
	<path class="st0" d="M745.4,253.7c0.2,1.9,0.9,8.5-3.3,15c-3.3,5.1-7.7,7.4-9.6,8.2"/>
	<path class="st0" d="M767,265c-2.1,1.2-7.3,4.4-10.6,11c-2.6,5.3-3.1,6.9-3,9.3"/>
	<path class="st0" d="M771.3,278.7"/>
	<path class="st0" d="M758,309.6c-0.6-2.3-2.3-9.9,1.4-18.5c3.6-8.3,10-12.2,12.1-13.4"/>
	<path class="st0" d="M838,373.1c4.6-9.3,14.5-32.7,9-60.9c-1.8-9.1-5.5-28.1-21.5-41.4c-4-3.3-7.7-5.4-10.5-6.8"/>
	<path class="st0" d="M850.4,212.4c-25,5.3-25,5.3-25,5.3"/>
	<circle class="st0" cx="854.9" cy="212.1" r="4.1"/>
	<path class="st0" d="M804.9,158.7c-9.7,18-9.7,18-9.7,18"/>
	<circle class="st0" cx="806.4" cy="155.6" r="2.8"/>
	<path class="st0" d="M741.1,161.2c6.4,13.5,7,13.4,7,13.4"/>
	<ellipse transform="matrix(0.6305 -0.7762 0.7762 0.6305 150.671 630.84)" class="st1" cx="737.9" cy="157.2" rx="4.7" ry="5"/>
	<path class="st0" d="M705.4,208.1c18.2,1.4,18.2,1.4,18.2,1.4"/>
	<circle class="st0" cx="702.3" cy="207.7" r="2.7"/>
	<path class="st0" d="M722.1,339.8c-3.3-4.9-14.6-23.1-11.5-46.9c2.9-22.4,16.9-37.3,20.5-41.2l0,0"/>
	
		<rect x="798.6" y="295.5" transform="matrix(0.9947 -0.1031 0.1031 0.9947 -26.5801 84.3245)" class="st2" width="7.7" height="7.7"/>
	
		<rect x="791.1" y="329.2" transform="matrix(0.4984 -0.8669 0.8669 0.4984 109.2344 859.3151)" class="st3" width="12.2" height="12.2"/>
	
		<rect x="834.6" y="441.2" transform="matrix(0.9656 -0.2602 0.2602 0.9656 -86.9219 233.4893)" class="st4" width="7.7" height="7.7"/>
	
		<rect x="784.6" y="263.9" transform="matrix(0.6305 -0.7762 0.7762 0.6305 83.2138 711.7994)" class="st1" width="9.3" height="9.3"/>
	
		<rect x="770.4" y="234.5" transform="matrix(0.9542 -0.299 0.299 0.9542 -36.0462 242.683)" class="st5" width="9.3" height="9.3"/>
	
		<rect x="750.3" y="258.9" transform="matrix(0.7462 -0.6658 0.6658 0.7462 16.1968 569.5364)" class="st6" width="9.3" height="9.3"/>
	
		<rect x="739.9" y="322.6" transform="matrix(0.7187 -0.6954 0.6954 0.7187 -18.0668 609.7821)" class="st7" width="9.3" height="9.3"/>
	<path class="st0" d="M741.9,209.9c1.1-3.6,4.1-11.9,12.2-17.4c9.4-6.4,24.4-8.4,28.4-2.2c4.3,6.8-5.4,22.1-8.6,21.3
		c-2.4-0.6-3.8-10.8,0.4-14.8c6.3-6,27,0,29.2,11.5c1.8,9.3-8.7,20.5-12.9,19.2c-3.4-1-5-10.8-1.3-14.3c4.8-4.5,20.2,0,23.2,9.1
		c3.6,11-12.3,25.1-18.1,23c-3.3-1.2-4.9-8-2.6-11.1c3.5-4.6,16.8-2.4,19.5,3.3c2.6,5.5-4,15.8-17.3,24.9"/>
	
		<ellipse transform="matrix(0.9975 -7.089882e-02 7.089882e-02 0.9975 -25.0211 59.9689)" class="st8" cx="832.3" cy="382.5" rx="6.9" ry="6.9"/>
	<rect x="774.3" y="381.1" class="st0" width="9.6" height="9.6"/>
	<path class="st0" d="M732.4,345.9c0,2.2-1.8,4-4,4c-2.2,0-4-1.8-4-4c0-2.2,1.8-4,4-4C730.6,341.8,732.4,343.6,732.4,345.9z"/>
	<circle class="st0" cx="760.5" cy="315.6" r="3.7"/>
</g>
<g>
	<g>
		<g>
			<polyline class="st0" points="645.5,640.7 645.5,644.6 641.6,644.6 			"/>
			<line class="st0" x1="631.8" y1="644.6" x2="560.1" y2="644.6"/>
			<polyline class="st0" points="558.8,644.6 554.9,644.6 554.9,640.7 			"/>
			<line class="st0" x1="554.9" y1="638.2" x2="554.9" y2="559.2"/>
			<polyline class="st0" points="554.9,557.9 554.9,554 558.8,554 			"/>
			<line class="st0" x1="576.7" y1="554" x2="640.4" y2="554"/>
			<polyline class="st0" points="641.6,554 645.5,554 645.5,557.9 			"/>
			<line class="st0" x1="645.5" y1="560.4" x2="645.5" y2="639.5"/>
		</g>
	</g>
	<line class="st0" x1="645.5" y1="554" x2="715.6" y2="554"/>
	<line class="st0" x1="645.5" y1="608.1" x2="693.8" y2="608.1"/>
	<line class="st0" x1="715.6" y1="554" x2="758.8" y2="510.8"/>
	<line class="st0" x1="554.9" y1="554" x2="525.5" y2="524.6"/>
	<line class="st0" x1="553.9" y1="582.4" x2="380.2" y2="582.4"/>
	<line class="st0" x1="525.5" y1="524.6" x2="102.4" y2="524.6"/>
	<line class="st0" x1="591.6" y1="513.9" x2="591.6" y2="436.7"/>
	<line class="st0" x1="571.2" y1="512.2" x2="538.6" y2="479.6"/>
	<line class="st0" x1="554.9" y1="471.4" x2="554.9" y2="412.7"/>
	<line class="st0" x1="554.9" y1="644.6" x2="518.5" y2="681"/>
	<line class="st0" x1="533.2" y1="610.3" x2="310.3" y2="610.3"/>
	<line class="st0" x1="605.8" y1="730.7" x2="605.8" y2="817.4"/>
	<line class="st0" x1="643.9" y1="670.9" x2="731.9" y2="758.9"/>
	<line class="st0" x1="668.3" y1="662.8" x2="820.6" y2="662.8"/>
	<path class="st0" d="M428.8,548.7h55.1c3.4,0,6.2,2.8,6.2,6.2v8.5c0,3.4-2.8,6.2-6.2,6.2h-55.1c-3.4,0-6.2-2.8-6.2-6.2v-8.5
		C422.6,551.4,425.3,548.7,428.8,548.7z"/>
	<path class="st0" d="M809.6,433.3h90.4c3.4,0,6.2,2.8,6.2,6.2v8.5c0,3.4-2.8,6.2-6.2,6.2h-90.4c-3.4,0-6.2-2.8-6.2-6.2v-8.5
		C803.4,436,806.2,433.3,809.6,433.3z"/>
	<line class="st0" x1="749.2" y1="579.3" x2="984.3" y2="579.3"/>
	<line class="st0" x1="662.8" y1="502.6" x2="716.5" y2="448.8"/>
	<line class="st0" x1="784.7" y1="465.1" x2="917.1" y2="465.1"/>
	<line class="st0" x1="669.7" y1="454.1" x2="728.4" y2="395.4"/>
	<line class="st0" x1="728.4" y1="395.4" x2="1072.5" y2="395.4"/>
	<line class="st0" x1="538.6" y1="479.6" x2="446.3" y2="479.6"/>
	<line class="st0" x1="602.3" y1="408.1" x2="509.1" y2="314.9"/>
	<line class="st0" x1="731.9" y1="768.8" x2="731.9" y2="1032.7"/>
	<line class="st0" x1="580.5" y1="779.4" x2="580.5" y2="967.8"/>
	<line class="st0" x1="605.2" y1="816.3" x2="654.6" y2="865.7"/>
	<line class="st0" x1="577.7" y1="546.7" x2="577.7" y2="517.7"/>
	<line class="st0" x1="620.5" y1="554" x2="620.5" y2="315.6"/>
	<line class="st0" x1="645.9" y1="580.3" x2="706.8" y2="580.3"/>
	<line class="st0" x1="645.5" y1="634.7" x2="749.2" y2="634.7"/>
	<line class="st0" x1="621.5" y1="650.4" x2="621.5" y2="692.6"/>
	<line class="st0" x1="605.8" y1="644.6" x2="605.8" y2="672.4"/>
	<line class="st0" x1="606.8" y1="547.7" x2="606.8" y2="412.7"/>
	<line class="st0" x1="634.6" y1="545.9" x2="634.6" y2="503.7"/>
	<line class="st0" x1="517.2" y1="788.6" x2="517.2" y2="688.6"/>
	<line class="st0" x1="592.9" y1="683.1" x2="592.9" y2="760.3"/>
	<line class="st0" x1="566" y1="644.6" x2="566" y2="779.4"/>
	<line class="st0" x1="579.9" y1="649.6" x2="579.9" y2="726.9"/>
	<line class="st0" x1="566" y1="779.4" x2="508.4" y2="836.9"/>
	<line class="st0" x1="506.4" y1="951.6" x2="506.4" y2="849.9"/>
	<line class="st0" x1="499.2" y1="314" x2="168.5" y2="314"/>
	<line class="st0" x1="629.9" y1="454.1" x2="786" y2="298"/>
	<line class="st0" x1="645.5" y1="644.6" x2="663.1" y2="662.2"/>
	<rect x="561.4" y="951.6" class="st0" width="13" height="13"/>
	<rect x="871.7" y="587.4" class="st0" width="31.7" height="31.7"/>
	<circle class="st0" cx="13.5" cy="313.3" r="12.2"/>
	<circle class="st0" cx="147.8" cy="313.3" r="12.2"/>
	<circle class="st0" cx="665.4" cy="880.4" r="11.2"/>
	<circle class="st0" cx="722.3" cy="443.5" r="8"/>
	<path class="st0" d="M760.1,811.4v-12.7c0-4.6-3.7-8.3-8.3-8.3c-4.6,0-8.3,3.7-8.3,8.3v12.7H760.1z"/>
	<rect x="743.5" y="829" class="st0" width="16.6" height="53.7"/>
	<rect x="743.5" y="900.2" class="st0" width="16.6" height="46.5"/>
	<path class="st0" d="M743.5,964.2v40.7c0,4.6,3.7,8.3,8.3,8.3c4.6,0,8.3-3.7,8.3-8.3v-40.7H743.5z"/>
	<circle class="st0" cx="499" cy="468.6" r="6.7"/>
	<circle class="st0" cx="328.8" cy="408.7" r="6.7"/>
	<circle class="st0" cx="446.3" cy="380.2" r="6.7"/>
	<circle class="st0" cx="263.3" cy="408.7" r="6.7"/>
	<circle class="st0" cx="519.3" cy="468.6" r="6.7"/>
	<line class="st0" x1="734.4" y1="667.7" x2="734.4" y2="682.4"/>
	<line class="st0" x1="747.5" y1="667.7" x2="747.5" y2="682.4"/>
	<line class="st0" x1="761.3" y1="667.7" x2="761.3" y2="682.4"/>
	<line class="st0" x1="695.9" y1="380.8" x2="685.4" y2="370.2"/>
	<line class="st0" x1="702.1" y1="374.5" x2="691.6" y2="364"/>
	<line class="st0" x1="708.8" y1="367.9" x2="698.2" y2="357.4"/>
	<line class="st0" x1="665.4" y1="900.8" x2="665.4" y2="954.1"/>
</g>
<g id="dna">
	<path class="st0" d="M433.2,477.3c-52-11.5-50.9-30.3-79-66.9c-38.7-52.3-86-29.6-112.6-1.2"/>
	<path class="st0" d="M433.9,378.5c-17.4-1.7-47.9,18.7-52.7,30.2"/>
	<path class="st0" d="M160,482.9c13.9,0.2,46.8-19.1,53.3-31.2"/>
	<line class="st0" x1="297.2" y1="379.1" x2="298.5" y2="453.9"/>
	<line class="st0" x1="329.4" y1="467.3" x2="328.3" y2="422.1"/>
	<line class="st0" x1="264.7" y1="472.9" x2="263.3" y2="422.8"/>
	<line class="st0" x1="186.9" y1="472.9" x2="187" y2="418.5"/>
	<line class="st0" x1="406" y1="387.3" x2="406.8" y2="443.5"/>
	<path class="st0" d="M25.3,333.5c21.4,26.1,41.9,35.5,56.6,39.3c24.8,6.4,38.3-1.8,78.9,6.7c9.5,2,25.5,5.9,40.8,17.9
		c19.6,15.4,18.8,25,36.9,50.5c9.7,13.6,25.9,27.6,43.6,31.5c34.9,7.7,65.8-24.7,68.9-28.1"/>
</g>
<g>
	<line class="st0" x1="1009.5" y1="558.8" x2="1012.3" y2="565.4"/>
	<line class="st0" x1="1024.2" y1="593.2" x2="1027" y2="599.9"/>
	<line class="st0" x1="997.1" y1="570.8" x2="1003.9" y2="573.6"/>
	<line class="st0" x1="1032.6" y1="585.1" x2="1039.4" y2="587.8"/>
	<path class="st9" d="M632.9,727.8"/>
	<path class="st9" d="M739,753.2c1.4,0.4,6.1,1.5,11.3-0.7c6.8-2.9,9.1-9.3,9.4-10.3"/>
	<line class="st0" x1="997.1" y1="587.8" x2="1003.9" y2="585.1"/>
	<line class="st0" x1="1032.6" y1="573.6" x2="1039.4" y2="570.8"/>
	<line class="st0" x1="1009.5" y1="599.9" x2="1012.3" y2="593.2"/>
	<line class="st0" x1="1024.2" y1="565.4" x2="1027" y2="558.8"/>
	<circle class="st0" cx="1018.2" cy="580.1" r="15.2"/>
	<circle class="st0" cx="1018.6" cy="580.1" r="5"/>
</g>
<g id="neuron_x5F_background">
	<path class="st9" d="M648.5,764.6c-1-3.3-0.7-3.3-2.5-7c-2.3-4.7-6.6-11.8-12.6-13.4c-3.5-0.9-4.8,1.3-8.3-0.3
		c-8.5-3.8-12.5-17-8.5-24.7c2.3-4.4,7.6-3,8.3-7.2c0.7-4.2-4.5-6.3-5-10.6c-0.3-2.6,0.4-5.7,1.8-8"/>
	<path class="st9" d="M628,795.8c2.5,0.2,5.1,0.1,7.4-1.1c3.6-1.8,5.9-6.5,8.7-8.7c3.8-3.1,10.4-1.6,12.6-6c1.2-2.4-2.2-6.7-3.7-8.9
		c-1.7-2.6-4.1-8.3-7.8-8.5c-3.7-0.2-4.4,3.4-8.8,4.7c-0.3,0.1-8.2,1.1-10.4-1.2c-1.8-2-4.1-5.8-7-7c-1.8-0.7-4-0.1-6-1
		c-1.6-0.7-3.4-1.9-4.5-3.4"/>
	<path class="st9" d="M620.8,815.8c3.7-1.8,7.3,0.4,10.8-2.3c1.5-1.2,2.2-6,2.5-8.3c0.3-1.6,1.2-4.9,0.3-6.2c-1.9-3-5-2-7.6-4.2
		s-1.3-5.5-4.8-8.1c-2.7-2-10.3,0.9-12.9,3.3"/>
	<path class="st9" d="M638.8,835c-0.5-2.8-1.1-4.1,0-7.3c0.4-1.2,1.3-4.2,3.7-5.2c2.9-1.2,4.1,0.6,8.5-0.6c2-0.6,7.3-9.8,8.3-12.9
		c0.6-1.9,3.6-8,2.7-9.7c-2.8-5.3-9.7-5.4-13.8-4.7c-7.1,1.3-10.1,5.1-14,10.2"/>
	<path class="st9" d="M653.3,864.1c2.6-2.4,4.3-10.2,3.3-12.6c-2.4-6.1-9.4-9.2-9.9-14.1c-0.3-3.2,4.2-5.2,4.7-5.5
		c3-2.1,6.1-0.3,7.8-2.8c1.7-2.5-0.3-6.4-3-7.4c-2-0.7-3.4,0.1-5,1"/>
	<path class="st9" d="M730.1,918.4c-12.6-4.6-18.7-9.6-23.7-24.4c-0.4-1.2-3.2-15.5-1.9-20.3c0.7-2.4,1.3-9.9,1.1-13
		c-0.2-2.3-1.9-9-2.2-9.9c-2.3-7.6-9.1-13.2-12.1-18.8c-3.9-7-7-16-10.6-20.9c-3.1-4.2-8.1-3.5-9.6-3.3c-6.9,1.1-9.5,5.3-10,10.5
		c-0.3,3,1.9,4.5,1.6,7.3c-0.2,2.1-1.1,3.7-0.4,5.6c0.9,2.5,3.1,1.9,4.4,4.8c0.9,1.9,0.4,6.7-1.2,8.8"/>
	<path class="st9" d="M730,803.7c-2.9,0.4-9.1-1.8-9.8-4.3c-1-4,2.6-6.2,1-9.3c-0.7-1.4-1.8-1.5-2.9-1.7c-3-0.5-3.6,0.4-7.1,1.3
		c-0.9,0.2-6.5,0.7-8.3,1.1c-1.7,0.3-6.7,1.6-7.5,2.7c-4.3,5.7-3.9,13-2.9,19.3c1.6,10.8,5.8,22.1,13.6,29.6
		c2.7,2.7,4.9-0.1,6.7-1.2c2.1-1.2,4.2-3.8,5.9-3.2c3.1,1.2,1,4.2,3.2,6.4c1.8,1.7,5.7,3,8.4,3.3"/>
	<path class="st9" d="M735.1,779.3c3.1,1.7,5,5.2,3.7,8.4c-1.6,4.1-6.9,3.7-9.5,2.2c-3.6-2.2-1.6-8.5-4.7-9.4
		c-2.1-0.6-2.7,3.6-4.6,5.1c-2.4,1.9-6.8,4.1-10.3,4.2"/>
	<path class="st9" d="M746,736.6c-2.7,0.7-7,4.2-7.8,6.3c-2.5,6,0.8,10.1-2.1,15.7c-1.2,2.3-3.9,4.6-6.8,4.8
		c-2.9,0.1-5.4-2.3-7.7-3.5c-3.7-1.9-10.6-1.8-13.5-0.5c-6.8,2.9-14.7,7.9-13.6,15.4c1.2,8.3,10.7,9.1,19,8.8c1.2,0,10.4-2,11.6-5.9
		c0.4-1.3,1-4.4,2.2-5.9c0.9-1.2,2.9-2.1,4.3-2.6"/>
	<path class="st9" d="M710,759.9c-1.8-0.8-3.7-1.5-5.6-1.8c-2-0.3-3.8-0.3-5.8-0.2"/>
	<path class="st9" d="M681.6,713.6c-2.2,1.7-4,4.1-4.2,6.8c-0.2,3.7,4.2,6.3,3.2,9.6c-1,3.3-5.8,1.7-7.6,4.7
		c-1.7,3.1,3,10.3,4.1,12.3c2.4,4.6,1.7,18.4,6.3,20c3.8,1.3,7.9-6.8,12.1-8.2c2.3-0.8,6.6-1.2,9.8-3.5c0.7-0.5,4.6-3.9,4.1-6.5
		c-0.4-2-2.8-3.8-3.7-6.2c-0.6-1.7-0.1-4.3,0.5-6"/>
	<path class="st9" d="M673.3,738.9c-2.7,0.5-4.9,1.6-7.5-0.7c-2.6-2.3-0.9-8.6,0.1-11.1c1-2.4,2.4-2.7,2.3-4.8
		c0-5.3-5.2-6.3-6.3-11.9c-0.5-2.8,3.1-7.7,6-9.1"/>
	<path class="st9" d="M633.3,729.2c1.6-0.3,4.7,0.7,5.4,1.9c1.7,2.9-0.3,5.3,0.8,8.1c1,2.3,3.7,2.9,4.5,5.3c1,2.7-0.6,5.5,0.1,8.2
		c0.5,1.9,3,4.2,3.8,4.9c1.2,1.1,3.1,1.9,3.5,2.1c4.3,2.7,8.1,9.1,12,10.1c2.9,0.7,5.8-2.5,6.4-3.3c3.2-5.2,2.6-6.4,1.3-12.6
		c-0.9-4.4-4.3-11.8-9.5-14.6c-2.2-1.2-4.9-1.3-6.9-3.2c-2.4-2.2-3.3-5.6-3.5-8.8"/>
	<path class="st9" d="M676.8,774.8c5.8,0.2,9.5,4.8,9.8,10.6c0.3,5.8-3.3,12.1-9.4,11c-6.2-1.2-10.1-6.3-10.2-12.1
		C666.8,778.5,671,774.6,676.8,774.8z"/>
	<path class="st9" d="M676.5,781.8c1.3,0.1,2.2,1.4,2.2,2.7c0,1.3-0.7,2.4-2.1,2.4s-2.1-1.4-2.2-2.6S675.2,781.6,676.5,781.8z"/>
</g>
<g class="st10">
	<line class="st11" x1="0" y1="0" x2="1200" y2="1200"/>
	<line class="st11" x1="1200" y1="0" x2="0" y2="1200"/>
</g>
</svg>
